<?xml version="1.0" encoding="utf-8"?>
<!-- Generator: Adobe Illustrator 26.2.1, SVG Export Plug-In . SVG Version: 6.00 Build 0)  -->
<svg version="1.1" id="Layer_1" xmlns="http://www.w3.org/2000/svg" xmlns:xlink="http://www.w3.org/1999/xlink" x="0px" y="0px"
	 viewBox="0 0 28 26.9" style="enable-background:new 0 0 28 26.9;" xml:space="preserve">
<style type="text/css">
	.st0{fill:#008000;}
	.st1{fill:#C00000;}
	.st2{fill:#CFCFCF;}
</style>
<polygon class="st0" points="15.9,13 15.9,13 14.9,13.9 13.9,13 13.9,13 11.9,11 12.9,10 14.9,12 19.8,7.1 20.8,8.1 "/>
<rect x="12.5" y="18.9" class="st1" width="8.3" height="1.4"/>
<path class="st2" d="M0,3.2v23.7h24.9V3.2H0z M23.5,25.6L1.4,25.6l0-21h22.1L23.5,25.6z M4.2,8.4v5.5h5.5V8.4H4.2z M8.3,12.5H5.5
	V9.8h2.8V12.5z M4.1,16.8v5.5h5.5v-5.5L4.1,16.8z M8.3,20.9H5.5v-2.8h2.8V20.9z M28,0v23.7h-1.4l0-22.2l-22.4,0V0H28z"/>
</svg>
